<svg preserveAspectRatio="none" width="100%" height="100%" overflow="visible" style="display: block;" viewBox="0 0 600 600" fill="none" xmlns="http://www.w3.org/2000/svg">
<g id="moon" clip-path="url(#clip0_1342_788)">
<g id="Vector">
<path d="M194.742 8.98807C194.742 4.02409 190.715 -0.0216485 185.757 0.207375C163.251 1.24681 141.073 6.18489 120.217 14.8238C96.5901 24.6105 75.1219 38.955 57.0385 57.0385C38.9551 75.1219 24.6105 96.59 14.8238 120.217C5.03715 143.844 1.10291e-05 169.168 8.71725e-06 194.742C6.40537e-06 220.315 5.03714 245.639 14.8238 269.266C24.6105 292.893 38.9551 314.361 57.0385 332.445C75.1219 350.528 96.59 364.873 120.217 374.659C141.073 383.298 163.251 388.236 185.756 389.276C190.715 389.505 194.742 385.459 194.742 380.495L194.742 8.98807Z" fill="var(--fill-0, #040921)" fill-opacity="0.03"/>
<path d="M590.217 194.742C595.181 194.742 599.226 190.715 598.997 185.757C597.958 163.251 593.02 141.073 584.381 120.217C574.594 96.5901 560.25 75.1219 542.166 57.0385C524.083 38.9551 502.615 24.6105 478.988 14.8238C455.36 5.03716 430.037 1.75577e-05 404.463 1.34025e-05C378.889 9.24724e-06 353.566 5.03714 329.939 14.8238C306.312 24.6105 284.844 38.955 266.76 57.0385C248.677 75.1219 234.332 96.59 224.545 120.217C215.906 141.073 210.968 163.251 209.929 185.756C209.7 190.715 213.746 194.742 218.71 194.742L590.217 194.742Z" fill="var(--fill-0, #040921)" fill-opacity="0.03"/>
<path d="M404.463 590.217C404.463 595.181 408.489 599.226 413.448 598.997C435.953 597.958 458.131 593.02 478.987 584.381C502.615 574.594 524.083 560.25 542.166 542.166C560.25 524.083 574.594 502.615 584.381 478.988C594.168 455.36 599.205 430.037 599.205 404.463C599.205 378.889 594.168 353.566 584.381 329.939C574.594 306.312 560.25 284.844 542.166 266.76C524.083 248.677 502.615 234.332 478.988 224.545C458.131 215.906 435.953 210.968 413.448 209.929C408.49 209.7 404.463 213.746 404.463 218.71L404.463 590.217Z" fill="var(--fill-0, #040921)" fill-opacity="0.03"/>
<path d="M8.98811 404.463C4.02414 404.463 -0.021604 408.489 0.207418 413.448C1.24684 435.953 6.18492 458.131 14.8238 478.987C24.6105 502.615 38.9551 524.083 57.0385 542.166C75.1219 560.25 96.59 574.594 120.217 584.381C143.844 594.167 169.168 599.205 194.742 599.205C220.315 599.205 245.639 594.168 269.266 584.381C292.893 574.594 314.361 560.25 332.445 542.166C350.528 524.083 364.873 502.615 374.659 478.988C383.298 458.131 388.236 435.953 389.276 413.448C389.505 408.489 385.459 404.463 380.495 404.463L8.98811 404.463Z" fill="var(--fill-0, #040921)" fill-opacity="0.03"/>
</g>
</g>
<defs>
<clipPath id="clip0_1342_788">
<rect width="600" height="600" fill="white"/>
</clipPath>
</defs>
</svg>
